<svg width="100" height="100" xmlns="http://www.w3.org/2000/svg">
  <rect width="100" height="100" fill="#1E1E1E"/>
  <path d="M10,10 L10,90 M20,10 L20,90 M30,10 L30,90 M40,10 L40,90 M50,10 L50,90 M60,10 L60,90 M70,10 L70,90 M80,10 L80,90 M90,10 L90,90 
           M10,10 L90,10 M10,20 L90,20 M10,30 L90,30 M10,40 L90,40 M10,50 L90,50 M10,60 L90,60 M10,70 L90,70 M10,80 L90,80 M10,90 L90,90" 
        stroke="#00FF00" stroke-width="2"/>
  <circle cx="10" cy="10" r="3" fill="#00FF00"/>
  <circle cx="90" cy="10" r="3" fill="#00FF00"/>
  <circle cx="10" cy="90" r="3" fill="#00FF00"/>
  <circle cx="90" cy="90" r="3" fill="#00FF00"/>
</svg>

